<svg width="265" height="50" viewBox="0 0 265 50" fill="none" xmlns="http://www.w3.org/2000/svg">
<path d="M0.12 39V5.736H19.944L19.128 11.352H7.992V20.184H17.688V25.8H7.992V39H0.12ZM43.9031 25.752C43.9031 26.808 43.8551 27.72 43.7591 28.488H27.9671C28.2231 30.632 28.8311 32.136 29.7911 33C30.7511 33.864 32.0791 34.296 33.7751 34.296C34.7991 34.296 35.7911 34.12 36.7511 33.768C37.7111 33.384 38.7511 32.808 39.8711 32.04L42.9911 36.264C40.0151 38.632 36.7031 39.816 33.0551 39.816C28.9271 39.816 25.7591 38.6 23.5511 36.168C21.3431 33.736 20.2391 30.472 20.2391 26.376C20.2391 23.784 20.7031 21.464 21.6311 19.416C22.5591 17.336 23.9191 15.704 25.7111 14.52C27.5031 13.304 29.6471 12.696 32.1431 12.696C35.8231 12.696 38.7031 13.848 40.7831 16.152C42.8631 18.456 43.9031 21.656 43.9031 25.752ZM36.4631 23.592C36.3991 19.688 35.0231 17.736 32.3351 17.736C31.0231 17.736 29.9991 18.216 29.2631 19.176C28.5591 20.136 28.1271 21.72 27.9671 23.928H36.4631V23.592ZM54.9315 39.816C52.7235 39.816 50.9955 39.192 49.7475 37.944C48.5315 36.664 47.9235 34.856 47.9235 32.52V3.384L55.5075 2.568V32.232C55.5075 33.288 55.9395 33.816 56.8035 33.816C57.2515 33.816 57.6675 33.736 58.0515 33.576L59.5395 38.952C58.1635 39.528 56.6275 39.816 54.9315 39.816ZM69.9975 13.512V39H62.4135V13.512H69.9975ZM66.1575 0.0719976C67.4695 0.0719976 68.5415 0.487998 69.3735 1.32C70.2375 2.12 70.6695 3.144 70.6695 4.392C70.6695 5.64 70.2375 6.68 69.3735 7.512C68.5415 8.312 67.4695 8.712 66.1575 8.712C64.8455 8.712 63.7735 8.312 62.9415 7.512C62.1095 6.68 61.6935 5.64 61.6935 4.392C61.6935 3.144 62.1095 2.12 62.9415 1.32C63.7735 0.487998 64.8455 0.0719976 66.1575 0.0719976ZM90.3604 12.696C93.5604 12.696 95.9444 13.88 97.5124 16.248C99.0804 18.616 99.8644 21.928 99.8644 26.184C99.8644 28.808 99.4484 31.16 98.6164 33.24C97.8164 35.288 96.6484 36.904 95.1124 38.088C93.5764 39.24 91.7844 39.816 89.7364 39.816C87.1764 39.816 85.1124 38.936 83.5444 37.176V48.84L75.9604 49.656V13.512H82.6324L83.0164 16.344C84.0084 15.096 85.1444 14.184 86.4244 13.608C87.7044 13 89.0164 12.696 90.3604 12.696ZM87.4324 34.248C90.4724 34.248 91.9924 31.592 91.9924 26.28C91.9924 23.272 91.6564 21.192 90.9844 20.04C90.3124 18.856 89.3044 18.264 87.9604 18.264C87.0964 18.264 86.2804 18.52 85.5124 19.032C84.7764 19.544 84.1204 20.28 83.5444 21.24V31.992C84.5684 33.496 85.8644 34.248 87.4324 34.248ZM126.825 25.752C126.825 26.808 126.777 27.72 126.681 28.488H110.889C111.145 30.632 111.753 32.136 112.713 33C113.673 33.864 115.001 34.296 116.697 34.296C117.721 34.296 118.713 34.12 119.673 33.768C120.633 33.384 121.673 32.808 122.793 32.04L125.913 36.264C122.937 38.632 119.625 39.816 115.977 39.816C111.849 39.816 108.681 38.6 106.473 36.168C104.265 33.736 103.161 30.472 103.161 26.376C103.161 23.784 103.625 21.464 104.553 19.416C105.481 17.336 106.841 15.704 108.633 14.52C110.425 13.304 112.569 12.696 115.065 12.696C118.745 12.696 121.625 13.848 123.705 16.152C125.785 18.456 126.825 21.656 126.825 25.752ZM119.385 23.592C119.321 19.688 117.945 17.736 115.257 17.736C113.945 17.736 112.921 18.216 112.185 19.176C111.481 20.136 111.049 21.72 110.889 23.928H119.385V23.592ZM142.62 39V5.736H162.444L161.628 11.352H150.492V20.184H160.188V25.8H150.492V39H142.62ZM178.003 12.792C178.931 12.792 179.779 12.904 180.547 13.128L179.347 20.472C178.387 20.248 177.619 20.136 177.043 20.136C175.539 20.136 174.387 20.664 173.587 21.72C172.819 22.744 172.211 24.296 171.763 26.376V39H164.179V13.512H170.803L171.427 18.456C172.003 16.696 172.867 15.32 174.019 14.328C175.203 13.304 176.531 12.792 178.003 12.792ZM191.029 13.512V39H183.445V13.512H191.029ZM187.189 0.0719976C188.501 0.0719976 189.573 0.487998 190.405 1.32C191.269 2.12 191.701 3.144 191.701 4.392C191.701 5.64 191.269 6.68 190.405 7.512C189.573 8.312 188.501 8.712 187.189 8.712C185.877 8.712 184.805 8.312 183.973 7.512C183.141 6.68 182.725 5.64 182.725 4.392C182.725 3.144 183.141 2.12 183.973 1.32C184.805 0.487998 185.877 0.0719976 187.189 0.0719976ZM214.944 13.512V18.84L203.424 33.24H215.184L214.512 39H194.64V33.624L206.208 19.224H195.648V13.512H214.944ZM236.975 13.512V18.84L225.455 33.24H237.215L236.543 39H216.671V33.624L228.239 19.224H217.679V13.512H236.975ZM251.672 12.696C255.576 12.696 258.632 13.896 260.84 16.296C263.048 18.664 264.152 21.992 264.152 26.28C264.152 29 263.64 31.384 262.616 33.432C261.624 35.448 260.184 37.016 258.296 38.136C256.44 39.256 254.232 39.816 251.672 39.816C247.8 39.816 244.744 38.632 242.504 36.264C240.296 33.864 239.192 30.52 239.192 26.232C239.192 23.512 239.688 21.144 240.68 19.128C241.704 17.08 243.144 15.496 245 14.376C246.888 13.256 249.112 12.696 251.672 12.696ZM251.672 18.264C250.136 18.264 248.984 18.92 248.216 20.232C247.448 21.512 247.064 23.512 247.064 26.232C247.064 29.016 247.432 31.048 248.168 32.328C248.936 33.608 250.104 34.248 251.672 34.248C253.208 34.248 254.36 33.608 255.128 32.328C255.896 31.016 256.28 29 256.28 26.28C256.28 23.496 255.896 21.464 255.128 20.184C254.392 18.904 253.24 18.264 251.672 18.264Z" fill="black"/>
</svg>
